<?xml version="1.0" encoding="UTF-8"?>
<svg width="49px" height="49px" viewBox="0 0 49 49" version="1.1" xmlns="http://www.w3.org/2000/svg" xmlns:xlink="http://www.w3.org/1999/xlink">
    <!-- Generator: Sketch 43.1 (39012) - http://www.bohemiancoding.com/sketch -->
    <title>facebook_c</title>
    <desc>Created with Sketch.</desc>
    <defs></defs>
    <g id="官网" stroke="none" stroke-width="1" fill="none" fill-rule="evenodd">
        <g id="切图" transform="translate(-1.000000, -3225.000000)" fill="#667EB9">
            <g id="Group-15" transform="translate(0.000000, 3224.000000)">
                <path d="M25.5,49.3785326 C12.296942,49.3785326 1.59375,38.6815453 1.59375,25.4861413 C1.59375,12.2907373 12.296942,1.59375 25.5,1.59375 C38.703058,1.59375 49.40625,12.2907373 49.40625,25.4861413 C49.40625,38.6815453 38.703058,49.3785326 25.5,49.3785326 Z M28.3764,10.0631249 C27.3723375,10.0631249 26.4084375,10.1835425 25.2838875,10.6250739 C22.994625,11.5482759 21.8299125,13.7157937 21.8299125,17.0874879 L21.8299125,20.3789037 L18.6169125,20.3789037 L18.6169125,25.8779765 L21.8299125,25.8779765 L21.8299125,41.7329674 L28.3764,41.7329674 L28.3764,25.8779765 L32.8344375,25.8779765 L33.436875,20.3789037 L28.3764,20.3789037 L28.3764,17.8902723 C28.3764,17.1276271 28.456725,16.5656781 28.6575375,16.2445643 C28.938675,15.7628937 29.50095,15.5220584 30.384525,15.5220584 L33.35655,15.5220584 L33.35655,10.0631249 L28.3764,10.0631249 Z" id="facebook_c"></path>
            </g>
        </g>
    </g>
</svg>