<?xml version="1.0" encoding="UTF-8"?>
<svg width="49px" height="49px" viewBox="0 0 49 49" version="1.1" xmlns="http://www.w3.org/2000/svg" xmlns:xlink="http://www.w3.org/1999/xlink">
    <!-- Generator: Sketch 43.1 (39012) - http://www.bohemiancoding.com/sketch -->
    <title>twitter_c</title>
    <desc>Created with Sketch.</desc>
    <defs></defs>
    <g id="官网" stroke="none" stroke-width="1" fill="none" fill-rule="evenodd">
        <g id="切图" transform="translate(-1.000000, -3165.000000)" fill="#5DD7FC">
            <g id="Group-13" transform="translate(0.000000, 3164.000000)">
                <path d="M25.5,49.3785326 C12.296942,49.3785326 1.59375,38.6815453 1.59375,25.4861413 C1.59375,12.2907373 12.296942,1.59375 25.5,1.59375 C38.703058,1.59375 49.40625,12.2907373 49.40625,25.4861413 C49.40625,38.6815453 38.703058,49.3785326 25.5,49.3785326 Z M18.4726358,19.3667327 C13.8762616,17.0475783 12.7606368,14.9521165 12.7606368,14.9521165 C12.7606368,14.9521165 12.046637,16.2008919 12.3590119,18.5200462 C12.671387,20.8392006 14.8668604,23.8231212 14.8668604,23.8231212 L12.2251369,22.7569628 C12.2251369,22.7569628 12.3590118,24.2287339 13.3853867,25.745104 C14.4117615,27.2614742 18.0263859,29.1792364 18.0263859,29.1792364 L14.5902615,29.2238356 C14.5902615,29.2238356 14.9026364,29.9374215 16.1521362,31.1415978 C17.4016359,32.3457741 20.8823853,33.416153 20.8823853,33.416153 C20.8823853,33.416153 18.4343698,35.1294775 16.7322611,35.7799065 C15.0301525,36.4303357 12.3590119,36.5826907 12.3590119,36.5826907 C12.3590119,36.5826907 16.3366936,39.0562498 22.44426,38.4558539 C28.5518264,37.8554579 32.7562257,35.00275 36.0102575,30.2496154 C39.2642888,25.4964805 38.955507,19.3228304 38.955507,19.3228304 C38.955507,19.3228304 39.3117629,18.9135185 40.1761489,18.1212182 C41.0405348,17.3289178 41.3067355,16.9399264 41.3067355,16.9399264 L39.14694,17.1687325 L40.5495426,14.6666174 C40.5495426,14.6666174 39.6934357,15.0555313 39.1019437,15.2733231 C38.5104516,15.4911149 37.716607,15.7089067 37.716607,15.7089067 C37.716607,15.7089067 34.5843496,11.8740802 30.0326004,14.1486354 C25.480851,16.4231903 26.953476,21.5520897 26.953476,21.5520897 C26.953476,21.5520897 23.0690099,21.6858871 18.4726358,19.3667327 Z" id="twitter_c"></path>
            </g>
        </g>
    </g>
</svg>