<?xml version="1.0" encoding="UTF-8"?>
<svg width="50px" height="50px" viewBox="0 0 50 50" version="1.1" xmlns="http://www.w3.org/2000/svg" xmlns:xlink="http://www.w3.org/1999/xlink">
    <!-- Generator: Sketch 43.1 (39012) - http://www.bohemiancoding.com/sketch -->
    <title>timeline_icon_coins</title>
    <desc>Created with Sketch.</desc>
    <defs></defs>
    <g id="爱豆端" stroke="none" stroke-width="1" fill="none" fill-rule="evenodd">
        <g id="3.2视频详情页-G币" transform="translate(-280.000000, -251.000000)">
            <g id="总收入" transform="translate(0.000000, 251.000000)">
                <g id="timeline_icon_coins" transform="translate(280.000000, 0.000000)">
                    <g id="icon_coins" transform="translate(1.250000, 1.250000)">
                        <ellipse id="Oval-5" stroke="#FABC01" stroke-width="2" fill="#FFF8E3" cx="23.75" cy="23.75" rx="23.75" ry="23.75"></ellipse>
                        <path d="M36.515625,37.9190341 L33.3296494,37.9190341 L32.5729802,34.5851437 C31.2454837,36.0933398 29.9180071,37.1384775 28.5905107,37.7205882 C27.2630142,38.302699 25.7364161,38.59375 24.0106707,38.59375 C21.8866764,38.59375 19.9817475,38.2034771 18.295827,37.4229195 C16.6099065,36.6423619 15.1828692,35.5773797 14.0146723,34.2279412 C12.8464754,32.8785026 11.9504287,31.3041812 11.3265053,29.5049298 C10.702582,27.7056784 10.390625,25.7873876 10.390625,23.75 C10.390625,21.7390719 10.702582,19.8340108 11.3265053,18.0347594 C11.9504287,16.2355079 12.8464754,14.6611866 14.0146723,13.311748 C15.1828692,11.9623094 16.6099065,10.8907125 18.295827,10.0969251 C19.9817475,9.30313774 21.8866764,8.90625 24.0106707,8.90625 C25.5505666,8.90625 27.0174282,9.11130867 28.4112995,9.52143215 C29.8051708,9.93155564 31.0463614,10.5401168 32.1349085,11.347134 C33.2234556,12.1541512 34.1261397,13.1662149 34.8429878,14.3833556 C35.5598359,15.6004963 36.0111779,17.002833 36.1970274,18.5904078 L31.3384146,18.5904078 C31.205665,17.6643225 30.9202575,16.8507026 30.4821837,16.1495237 C30.0441099,15.4483449 29.4932071,14.859628 28.8294588,14.3833556 C28.1657106,13.9070832 27.4223237,13.5498842 26.5992759,13.311748 C25.7762281,13.0736118 24.9133683,12.9545455 24.0106707,12.9545455 C22.4973248,12.9545455 21.1897603,13.2588261 20.0879383,13.8673964 C18.9861162,14.4759667 18.0900695,15.2895866 17.3997713,16.3082804 C16.7094732,17.3269742 16.1983947,18.4845635 15.8665206,19.7810829 C15.5346465,21.0776023 15.3687119,22.4005614 15.3687119,23.75 C15.3687119,25.0994386 15.5346465,26.4223977 15.8665206,27.7189171 C16.1983947,29.0154365 16.7094732,30.1730258 17.3997713,31.1917196 C18.0900695,32.2104134 18.9861162,33.0240333 20.0879383,33.6326036 C21.1897603,34.2411739 22.4973248,34.5454545 24.0106707,34.5454545 C25.2850673,34.5719141 26.4134224,34.4065442 27.3957698,34.0493399 C28.3781172,33.6921356 29.2077901,33.1761815 29.8848133,32.5014622 C30.5618365,31.8267429 31.0729149,30.9998935 31.418064,30.020889 C31.7632131,29.0418846 31.9490598,27.9570581 31.9756098,26.766377 L24.4089177,26.766377 L24.4089177,22.9959057 L36.515625,22.9959057 L36.515625,37.9190341 Z" id="G" fill="#FABC01"></path>
                    </g>
                </g>
            </g>
        </g>
    </g>
</svg>