<?xml version="1.0" encoding="UTF-8"?>
<svg width="28px" height="26px" viewBox="0 0 28 26" version="1.1" xmlns="http://www.w3.org/2000/svg" xmlns:xlink="http://www.w3.org/1999/xlink">
    <!-- Generator: Sketch 43.1 (39012) - http://www.bohemiancoding.com/sketch -->
    <title>timeline_icon_likes</title>
    <desc>Created with Sketch.</desc>
    <defs></defs>
    <g id="爱豆端" stroke="none" stroke-width="1" fill="none" fill-rule="evenodd">
        <g id="3.2视频详情页-人气" transform="translate(-598.000000, -428.000000)" stroke="#FC4083" stroke-width="2" fill="#FFEFF5" fill-rule="nonzero">
            <g id="粉丝排行" transform="translate(-1.000000, 227.000000)">
                <g id="粉丝" transform="translate(0.000000, 184.000000)">
                    <g id="timeline_icon_likes" transform="translate(599.000000, 16.000000)">
                        <path d="M14.3064253,6.8627292 C14.3064253,6.8627292 10.5334506,2.14065167 6.96568528,2.90588277 C3.39696697,3.67014052 1.26242262,6.7968839 1.40689608,10.7651211 C1.5514468,14.7350945 4.49049886,17.8647053 6.38575664,19.7843465 C9.34232376,22.7795572 12.6505056,25.2444805 14.1519065,25.1993911 C15.5142172,25.1579846 19.2125984,22.8283558 22.2087547,19.6734644 C24.1509425,17.6306822 26.2119237,14.4689775 26.4613329,10.6616048 C26.7116952,6.85420586 25.2316472,3.15584756 20.6430375,2.80989017 C17.4370097,2.56744905 14.3064253,6.8627292 14.3064253,6.8627292" id="Shape"></path>
                    </g>
                </g>
            </g>
        </g>
    </g>
</svg>